<?xml version="1.0" encoding="utf-8"?>
<!-- Generator: Adobe Illustrator 23.0.6, SVG Export Plug-In . SVG Version: 6.00 Build 0)  -->
<svg version="1.1" id="Layer_1" xmlns="http://www.w3.org/2000/svg" xmlns:xlink="http://www.w3.org/1999/xlink" x="0px" y="0px"
	 viewBox="0 0 612 792" style="enable-background:new 0 0 612 792;" xml:space="preserve">
<style type="text/css">
	.st0{fill-rule:evenodd;clip-rule:evenodd;fill:#41BCFF;}
	.st1{fill:#1B2E4A;}
	.st2{fill-rule:evenodd;clip-rule:evenodd;fill:#3F9BFF;}
	.st3{fill-rule:evenodd;clip-rule:evenodd;fill:#0050B2;}
	.st4{fill-rule:evenodd;clip-rule:evenodd;fill:#0184FF;}
	.st5{fill-rule:evenodd;clip-rule:evenodd;fill:#1B2E4A;}
	.st6{fill-rule:evenodd;clip-rule:evenodd;fill:#FFFFFF;}
</style>
<rect x="67.86" y="285.45" transform="matrix(0.9799 -0.1996 0.1996 0.9799 -57.6231 20.0353)" class="st0" width="5.4" height="20.76"/>
<path class="st1" d="M69.89,287.01l-2.15,0.44l3.5,17.2l2.15-0.44L69.89,287.01z M65.53,284.63l6.87-1.4l4.78,23.49l-8.44,1.72
	l-4.78-23.49L65.53,284.63z"/>
<path class="st0" d="M66.85,277.6c4.45-0.91,8.79,1.97,9.7,6.42c0.91,4.45-1.97,8.79-6.42,9.7c-4.45,0.91-8.79-1.97-9.7-6.42
	C59.53,282.85,62.4,278.51,66.85,277.6"/>
<path class="st1" d="M66.53,276.03c2.65-0.54,5.28,0.05,7.38,1.44l0.01,0c2.1,1.39,3.67,3.58,4.21,6.23
	c0.54,2.66-0.05,5.29-1.43,7.38c-1.2,1.81-3,3.23-5.17,3.93l-0.65-3.17c1.32-0.5,2.4-1.4,3.14-2.52l0-0.01
	c0.93-1.41,1.33-3.18,0.97-4.97c-0.37-1.8-1.42-3.27-2.83-4.2l-0.01,0c-1.41-0.93-3.18-1.33-4.97-0.96
	c-1.79,0.36-3.27,1.42-4.2,2.83l-0.01,0c-0.93,1.41-1.33,3.18-0.96,4.97c0.36,1.79,1.42,3.27,2.83,4.2c1.12,0.74,2.47,1.15,3.88,1.1
	l0.65,3.17c-2.28,0.21-4.49-0.4-6.3-1.59c-2.1-1.39-3.67-3.58-4.21-6.24c-0.54-2.65,0.05-5.28,1.44-7.38
	C61.68,278.14,63.87,276.57,66.53,276.03"/>
<path class="st0" d="M97.98,302.34l0,59.8l-49.06,9.99c-5.68,1.16-11.05-0.23-15.45-4c-4.4-3.76-6.61-8.85-6.36-14.64
	c1.11-24.95,19.01-46.9,44.59-52.11C80.72,299.54,89.68,299.99,97.98,302.34"/>
<path class="st2" d="M43.8,372.48c-3.76-0.27-7.28-1.74-10.34-4.35c-4.4-3.76-6.61-8.85-6.36-14.64
	c0.79-17.65,9.97-33.8,24.34-43.58l1.43,0.96c-9.93,10.33-25.46,33.95-19.41,48.77c4.89,11.98,16.7,10.59,16.7,10.59L43.8,372.48z"
	/>
<path class="st3" d="M97.98,302.34v33.21c-5.97,1.52-12.14,2.93-18.46,4.22c-18.41,3.75-36,5.99-51.67,6.82
	c3.78-22,20.65-40.49,43.85-45.21C80.72,299.54,89.68,299.99,97.98,302.34"/>
<path class="st4" d="M32.72,346.32c-1.73,0.12-3.18,0.17-4.87,0.26c2.56-14.9,11.13-28.19,23.59-36.68l1.43,0.96
	C52.88,310.87,35.25,328.99,32.72,346.32"/>
<path class="st5" d="M97.98,300.68V304c-8.17-2.39-17.03-2.87-25.96-1.06c-12.3,2.5-22.76,8.98-30.32,17.82
	c-7.73,9.04-12.44,20.54-12.99,32.79c-0.12,2.65,0.33,5.13,1.3,7.37c0.97,2.25,2.48,4.27,4.5,5.98c2.01,1.72,4.24,2.89,6.61,3.51
	c2.37,0.61,4.89,0.66,7.48,0.13l49.38-10.06v3.28l-48.74,9.93c-3.08,0.63-6.09,0.56-8.93-0.17c-2.83-0.73-5.49-2.13-7.89-4.18
	c-2.39-2.05-4.19-4.45-5.36-7.14c-1.17-2.69-1.7-5.65-1.56-8.79c0.58-12.97,5.57-25.15,13.76-34.72
	c8.02-9.37,19.1-16.24,32.11-18.89C80.5,297.94,89.56,298.37,97.98,300.68"/>
<path class="st6" d="M97.98,322.31v22.93l-34.62,7.05c-6.05,1.23-12.02-2.71-13.25-8.76v0c-1.23-6.05,2.71-12.02,8.76-13.25
	L97.98,322.31z"/>
<path class="st5" d="M97.98,319.86v4.91l-38.62,7.87c-2.38,0.48-4.34,1.9-5.59,3.79l-0.01,0c-1.24,1.88-1.77,4.24-1.29,6.62
	c0.48,2.38,1.9,4.34,3.79,5.59c1.89,1.25,4.25,1.78,6.62,1.3l35.1-7.15v4.91l-34.14,6.95c-3.68,0.75-7.33-0.07-10.24-2
	c-2.91-1.93-5.1-4.96-5.85-8.64c-0.75-3.67,0.08-7.32,2.01-10.24l-0.01,0c1.93-2.91,4.96-5.1,8.64-5.85L97.98,319.86z"/>
<path class="st5" d="M97.98,332.36v8.97c-1.99,0.64-4.27,0.39-6.26-0.95c-5.65-3.81-4.31-13.4,4.88-13.74
	c-0.53,1.51-1.76,3.35,0.37,5.12C97.31,332.05,97.65,332.25,97.98,332.36"/>
<path class="st5" d="M76.31,335.75c3.26,8.61-5.03,13.62-10.66,9.82c-5.73-3.87-4.15-13.1,4.87-13.66
	c-0.37,1.62-1.54,3.94,0.56,5.41C73.32,338.89,75.14,337.03,76.31,335.75"/>
<path class="st3" d="M97.98,383.59v79.39c-10.37-6.48-20.16-14.99-28.26-23.92c-20.69-22.8-14.66-39.07-2.48-42.66
	c9.65-2.85,21.85-8.49,26.49-10.71c1.21-0.58,1.91-0.93,1.91-0.93S96.51,384.34,97.98,383.59"/>
<path class="st4" d="M97.98,451.19v6.97l-4.22,2.04l-16.08-13.04L63,431.06l-6.69-16.81l3.14-9.78
	C59.45,404.47,62.17,429.4,97.98,451.19"/>
<path class="st5" d="M97.98,381.74v3.7c-0.96,0.49-1.51,0.76-1.52,0.76c0,0-0.24,0.12-1.92,0.92c-2.86,1.37-8.54,4.01-14.68,6.49
	c-3.99,1.61-8.2,3.17-11.99,4.29c-2.21,0.65-4.19,1.74-5.8,3.23c-2.17,2.01-3.7,4.76-4.22,8.14c-0.53,3.43-0.03,7.53,1.86,12.19
	c2.01,4.96,5.56,10.54,11.07,16.61c7.82,8.62,17.23,16.84,27.21,23.17v3.43c-10.77-6.63-20.93-15.42-29.31-24.66
	c-5.84-6.44-9.62-12.39-11.77-17.71c-2.13-5.27-2.69-9.96-2.07-13.94c0.62-4.02,2.43-7.29,5.02-9.69c1.91-1.76,4.22-3.05,6.78-3.8
	c3.74-1.11,7.86-2.63,11.76-4.2c6.17-2.49,11.75-5.09,14.54-6.42c0.74-0.36,1.89-0.92,1.9-0.93
	C94.83,383.33,96.03,382.74,97.98,381.74"/>
<path class="st6" d="M564.12,233.95c-127.21,0-271.62,0-443.75,0c-12.32,0-22.4,10.08-22.4,22.4L77.8,276.52l20.18-1.42v260.55
	c0,12.32,10.08,22.4,22.4,22.4h443.75c12.32,0,22.4-10.08,22.4-22.4V256.35C586.52,244.03,576.44,233.95,564.12,233.95"/>
<path class="st0" d="M55.79,398.5c-5.22,4.79-6.6,14.64-3.91,21.22c-1.27-0.4-17.12,13.99-6.35,26.31
	c13.11,15,54.32-20.52,54.32-20.52l3.22,4.28c0,0-20.47,23.49-40.88,29.45C25.6,469.94,11.95,418.22,55.79,398.5"/>
<path class="st2" d="M50.72,415.21c0,0-15.76,11.96-12.73,24.18c3.03,12.23,9.56,14.91,17.88,13.38
	c8.33-1.54,23.79-5.53,40.84-21.07l0.29-2.61l-3.94,1.85l-18.71,12.3l-13.41,5.59l-10.85,1.21l-5.28-4.86l-2.94-7.06l0.76-6.47
	l5.57-9.06l3.5-3.3L50.72,415.21z"/>
<path class="st1" d="M49.21,407.83c0.3-1.61,0.76-3.19,1.37-4.67c-12.35,7.32-18.64,17.56-20.12,27.3
	c-0.68,4.47-0.35,8.84,0.87,12.75c1.21,3.88,3.29,7.32,6.12,9.98c5.49,5.15,13.86,7.42,24.26,4.39c17.38-5.08,34.9-23.29,39.1-27.88
	l-1.26-1.67c-7.5,6.17-42.62,33.71-55.34,19.15c-4.62-5.28-4.86-10.91-3.32-15.81c0.82-2.61,2.15-5,3.58-6.99
	c1.42-1.99,2.95-3.6,4.17-4.66c0.37-0.32,0.73-0.6,1.08-0.83C48.7,415.5,48.53,411.54,49.21,407.83 M56.92,399.83
	c-2.22,2.06-3.65,5.22-4.28,8.62c-0.67,3.66-0.4,7.54,0.85,10.61c0.36,0.89-0.06,1.91-0.95,2.27c-0.58,0.23-0.75,0.29-1.59,1.01
	c-1.06,0.92-2.39,2.33-3.64,4.07c-1.24,1.73-2.39,3.79-3.09,6c-1.21,3.86-1.02,8.3,2.62,12.46c11.97,13.69,51.76-20.6,51.88-20.69
	c0.73-0.62,1.83-0.54,2.45,0.19l0.07,0.08l3.23,4.28c0.51,0.67,0.45,1.6-0.09,2.2c-0.06,0.07-20.79,23.87-41.7,29.97
	c-11.72,3.42-21.27,0.76-27.61-5.2c-3.28-3.08-5.69-7.04-7.07-11.48c-1.38-4.41-1.75-9.31-0.99-14.31
	c1.86-12.24,10.54-25.14,28.07-33.02c0.88-0.39,1.91,0,2.3,0.88C57.71,398.52,57.5,399.35,56.92,399.83z"/>
<path class="st3" d="M103.76,414.31c5.3-0.81,10.26,2.83,11.07,8.13c0.81,5.3-2.83,10.26-8.13,11.07
	c-5.3,0.81-10.26-2.83-11.07-8.13C94.82,420.08,98.46,415.12,103.76,414.31"/>
<path class="st4" d="M98.5,420.02c1.17-1.43,11.5-6.55,14.91,4.98l2.13-5.2l-4.9-4.66l-5.92-1.34l-4.93,1.86L98.5,420.02z"/>
<path class="st1" d="M109.91,417.55c-1.62-1.19-3.71-1.77-5.86-1.44c-2.16,0.33-3.98,1.5-5.17,3.13c-1.19,1.62-1.77,3.71-1.44,5.86
	c0.33,2.16,1.5,3.98,3.13,5.17c1.62,1.19,3.71,1.77,5.86,1.44c2.16-0.33,3.98-1.5,5.17-3.13c1.19-1.62,1.77-3.71,1.44-5.86
	C112.7,420.56,111.53,418.74,109.91,417.55 M103.42,412.52l0.14-0.02c3.12-0.46,6.14,0.38,8.5,2.12c2.36,1.74,4.07,4.37,4.56,7.48
	l0.02,0.14c0.46,3.12-0.38,6.14-2.12,8.5c-1.74,2.36-4.37,4.07-7.48,4.56l-0.14,0.02c-3.12,0.46-6.14-0.38-8.5-2.12
	c-2.36-1.74-4.07-4.37-4.56-7.48l-0.02-0.14c-0.46-3.12,0.38-6.14,2.12-8.5C97.68,414.72,100.31,413.02,103.42,412.52z"/>
</svg>
